<svg xmlns="http://www.w3.org/2000/svg" xmlns:xlink="http://www.w3.org/1999/xlink" width="300" height="116" viewBox="0 0 300 116">
  <defs>
    <path id="marketplace-a" d="M14.8751854,14.1972553 L17.0739713,15.0218 C18.8339977,15.6818099 20,17.3643517 20,19.2440608 L20,21.1190608 C20,21.8094167 19.4403559,22.3690608 18.75,22.3690608 L1.25,22.3690608 C0.559644063,22.3690608 0,21.8094167 0,21.1190608 L0,19.2440608 C0,17.3643517 1.16600225,15.6818099 2.92602868,15.0218 L5.12481461,14.1972553 C6.40345028,15.3910159 8.11938301,16.1190608 10,16.1190608 C11.880617,16.1190608 13.5965497,15.3910159 14.8751854,14.1972553 Z M10.245252,2.36906079 C12.6614978,2.36906079 14.620252,4.32781501 14.620252,6.74406079 C14.620252,6.86532588 14.6152102,6.98653855 14.6051397,7.10738476 L14.3998723,9.57059365 C14.2091786,11.8589172 12.2962554,13.6190608 10,13.6190608 C7.70374461,13.6190608 5.79082137,11.8589172 5.60012774,9.57059365 L5.39486033,7.10738476 C5.19420204,4.69948528 6.98352457,2.58483139 9.39142405,2.3841731 C9.51227026,2.37410258 9.63348293,2.36906079 9.75474802,2.36906079 L10.245252,2.36906079 Z"/>
  </defs>
  <g fill="none" fill-rule="evenodd">
    <rect width="300" height="116" fill="#3A97D4"/>
    <g transform="translate(59.5 25)">
      <path stroke="#FFF" stroke-linecap="round" stroke-linejoin="round" stroke-width="1.5" d="M32.4305521,52.7612629 C41.6231433,40.7304078 52.28981,34.7149803 64.4305521,34.7149803" opacity=".4"/>
      <path stroke="#FFF" stroke-linecap="round" stroke-linejoin="round" stroke-width="1.5" d="M32.4305521,16.6686977 C41.6231433,28.6995528 52.28981,34.7149803 64.4305521,34.7149803"/>
      <path fill="#FFF" fill-rule="nonzero" d="M141.650128,13.8939011 C141.527117,13.5689388 141.182911,13.4012177 140.849547,13.4870158 L140.750095,13.5204571 L129.937788,18.0398255 C129.836098,18.0823304 129.74466,18.1476459 129.670715,18.2305996 C129.433963,18.4961965 129.423259,18.8820698 129.629655,19.1403672 L129.706482,19.2214013 L132.867989,22.0401034 C124.807956,29.4343012 115.870945,33.1190608 106.02796,33.1190608 C105.613747,33.1190608 105.27796,33.4548472 105.27796,33.8690608 C105.27796,34.2832744 105.613747,34.6190608 106.02796,34.6190608 C116.303889,34.6190608 125.635303,30.7522041 133.992805,23.0435102 L137.266732,25.9605759 C137.346229,26.0314394 137.441851,26.0820159 137.546024,26.1083001 C137.882931,26.1933058 138.234745,26.0113074 138.377677,25.6944989 L138.414066,25.5955442 L141.666123,14.3370012 C141.708752,14.1894228 141.703139,14.0339437 141.650128,13.8939011 Z" opacity=".4"/>
      <path fill="#FFF" fill-rule="nonzero" d="M141.650128,53.9280291 C141.527117,54.2529915 141.182911,54.4207125 140.849547,54.3349145 L140.750095,54.3014732 L129.937788,49.7821047 C129.836098,49.7395999 129.74466,49.6742843 129.670715,49.5913307 C129.433963,49.3257338 129.423259,48.9398604 129.629655,48.681563 L129.706482,48.6005289 L132.867989,45.7818269 C124.807956,38.3876291 115.870945,34.7028695 106.02796,34.7028695 C105.613747,34.7028695 105.27796,34.367083 105.27796,33.9528695 C105.27796,33.5386559 105.613747,33.2028695 106.02796,33.2028695 C116.303889,33.2028695 125.635303,37.0697261 133.992805,44.77842 L137.266732,41.8613544 C137.346229,41.7904909 137.441851,41.7399143 137.546024,41.7136301 C137.882931,41.6286244 138.234745,41.8106228 138.377677,42.1274314 L138.414066,42.2263861 L141.666123,53.4849291 C141.708752,53.6325074 141.703139,53.7879865 141.650128,53.9280291 Z"/>
      <circle cx="90" cy="33.598" r="9" fill="#FFF"/>
      <polyline fill="#FEFFFF" points="64.431 28.119 76.181 33.869 64.431 39.619"/>
      <text fill="#FFF" font-family="SFProText-Medium, SF Pro Text" font-size="20" font-weight="400" opacity=".4">
        <tspan x="151.782" y="19">􀙙</tspan>
      </text>
      <text fill="#FFF" font-family="SFProText-Medium, SF Pro Text" font-size="20" font-weight="400">
        <tspan x="151.782" y="60.369">􀙙</tspan>
      </text>
      <path fill="#FFF" d="M14.8751854,54.1972553 L17.0739713,55.0218 C18.8339977,55.6818099 20,57.3643517 20,59.2440608 L20,61.1190608 C20,61.8094167 19.4403559,62.3690608 18.75,62.3690608 L1.25,62.3690608 C0.559644063,62.3690608 0,61.8094167 0,61.1190608 L0,59.2440608 C0,57.3643517 1.16600225,55.6818099 2.92602868,55.0218 L5.12481461,54.1972553 C6.40345028,55.3910159 8.11938301,56.1190608 10,56.1190608 C11.880617,56.1190608 13.5965497,55.3910159 14.8751854,54.1972553 Z M10.245252,42.3690608 C12.6614978,42.3690608 14.620252,44.327815 14.620252,46.7440608 C14.620252,46.8653259 14.6152102,46.9865385 14.6051397,47.1073848 L14.3998723,49.5705936 C14.2091786,51.8589172 12.2962554,53.6190608 10,53.6190608 C7.70374461,53.6190608 5.79082137,51.8589172 5.60012774,49.5705936 L5.39486033,47.1073848 C5.19420204,44.6994853 6.98352457,42.5848314 9.39142405,42.3841731 C9.51227026,42.3741026 9.63348293,42.3690608 9.75474802,42.3690608 L10.245252,42.3690608 Z" opacity=".4"/>
      <use fill="#FFF" xlink:href="#marketplace-a"/>
    </g>
  </g>
</svg>
