<svg xmlns="http://www.w3.org/2000/svg" xmlns:xlink="http://www.w3.org/1999/xlink" width="300" height="116" viewBox="0 0 300 116">
  <defs>
    <path id="platform-a" d="M116.75,48.2903002 L116.75,58.25 C116.75,58.9403559 116.190356,59.5 115.5,59.5 L100.5,59.5 C99.8096441,59.5 99.25,58.9403559 99.25,58.25 L99.25,48.2903002 C100.003099,48.6645587 100.851974,48.875 101.75,48.875 L101.75,54.5 L114.25,54.5 L114.25,48.875 C115.148026,48.875 115.996901,48.6645587 116.75,48.2903002 Z M114.83102,39.5 C115.248962,39.5 115.639251,39.7088764 115.871083,40.0566248 L118,43.25 C118,45.3210678 116.321068,47 114.25,47 C112.945643,47 111.796826,46.3340567 111.125,45.323622 C110.453174,46.3340567 109.304357,47 108,47 C106.695643,47 105.546826,46.3340567 104.875,45.323622 C104.203174,46.3340567 103.054357,47 101.75,47 C99.6789322,47 98,45.3210678 98,43.25 L100.128917,40.0566248 C100.360749,39.7088764 100.751038,39.5 101.16898,39.5 L114.83102,39.5 Z"/>
  </defs>
  <g fill="none" fill-rule="evenodd">
    <rect width="300" height="116" fill="#3A97D4"/>
    <g transform="translate(91 28)">
      <path fill="#E6FBFB" fill-rule="nonzero" d="M72.3824798,43.75 C72.4936063,43.75 72.6032067,43.7747951 72.7026012,43.8224216 L72.7026012,43.8224216 L83.2708181,48.8863589 C83.6244144,49.0557905 83.7677376,49.4678447 83.5909395,49.8067079 C83.5216747,49.9394653 83.4093475,50.0471121 83.2708181,50.1134908 L83.2708181,50.1134908 L72.7026012,55.1774281 C72.3490049,55.3468597 71.9190352,55.2095082 71.7422371,54.8706451 C71.6925398,54.775392 71.6666667,54.6703583 71.6666667,54.5638621 L71.6666667,54.5638621 L71.666,50.25 L35,50.25 C34.5857864,50.25 34.25,49.9142136 34.25,49.5 C34.25,49.1203042 34.5321539,48.806509 34.8982294,48.7568466 L35,48.75 L71.666,48.75 L71.6666667,44.4359876 C71.6666667,44.0886988 71.9359593,43.801686 72.2853482,43.7562623 Z" opacity=".5"/>
      <path fill="#FFF" fill-rule="nonzero" d="M72.3824798,4.25 C72.4936063,4.25 72.6032067,4.27479509 72.7026012,4.32242164 L72.7026012,4.32242164 L83.2708181,9.38635889 C83.6244144,9.55579046 83.7677376,9.96784472 83.5909395,10.3067079 C83.5216747,10.4394653 83.4093475,10.5471121 83.2708181,10.6134908 L83.2708181,10.6134908 L72.7026012,15.6774281 C72.3490049,15.8468597 71.9190352,15.7095082 71.7422371,15.3706451 C71.6925398,15.275392 71.6666667,15.1703583 71.6666667,15.0638621 L71.6666667,15.0638621 L71.666,10.75 L35,10.75 C34.5857864,10.75 34.25,10.4142136 34.25,10 C34.25,9.62030423 34.5321539,9.30650904 34.8982294,9.25684662 L35,9.25 L71.666,9.25 L71.6666667,4.93598761 C71.6666667,4.58869882 71.9359593,4.301686 72.2853482,4.25626226 Z"/>
      <path fill="#FFF" d="M14.8751854,51.3281945 L17.0739713,52.1527392 C18.8339977,52.8127492 20,54.4952909 20,56.375 L20,58.25 C20,58.9403559 19.4403559,59.5 18.75,59.5 L1.25,59.5 C0.559644063,59.5 0,58.9403559 0,58.25 L0,56.375 C0,54.4952909 1.16600225,52.8127492 2.92602868,52.1527392 L5.12481461,51.3281945 C6.40345028,52.5219551 8.11938301,53.25 10,53.25 C11.880617,53.25 13.5965497,52.5219551 14.8751854,51.3281945 Z M10.245252,39.5 C12.6614978,39.5 14.620252,41.4587542 14.620252,43.875 C14.620252,43.9962651 14.6152102,44.1174778 14.6051397,44.238324 L14.3998723,46.7015329 C14.2091786,48.9898564 12.2962554,50.75 10,50.75 C7.70374461,50.75 5.79082137,48.9898564 5.60012774,46.7015329 L5.39486033,44.238324 C5.19420204,41.8304245 6.98352457,39.7157706 9.39142405,39.5151123 C9.51227026,39.5050418 9.63348293,39.5 9.75474802,39.5 L10.245252,39.5 Z" opacity=".4"/>
      <path fill="#FFF" d="M14.8751854 11.8281945L17.0739713 12.6527392C18.8339977 13.3127492 20 14.9952909 20 16.875L20 18.75C20 19.4403559 19.4403559 20 18.75 20L1.25 20C.559644063 20 0 19.4403559 0 18.75L0 16.875C0 14.9952909 1.16600225 13.3127492 2.92602868 12.6527392L5.12481461 11.8281945C6.40345028 13.0219551 8.11938301 13.75 10 13.75 11.880617 13.75 13.5965497 13.0219551 14.8751854 11.8281945zM10.245252 3.01980663e-14C12.6614978 3.01980663e-14 14.620252 1.95875422 14.620252 4.375 14.620252 4.49626509 14.6152102 4.61747776 14.6051397 4.73832397L14.3998723 7.20153286C14.2091786 9.48985642 12.2962554 11.25 10 11.25 7.70374461 11.25 5.79082137 9.48985642 5.60012774 7.20153286L5.39486033 4.73832397C5.19420204 2.33042449 6.98352457.215770598 9.39142405.0151123077 9.51227026.00504178978 9.63348293 3.01980663e-14 9.75474802 3.01980663e-14L10.245252 3.01980663e-14zM116.75 8.79030022L116.75 18.75C116.75 19.4403559 116.190356 20 115.5 20L100.5 20C99.8096441 20 99.25 19.4403559 99.25 18.75L99.25 8.79030022C100.003099 9.16455869 100.851974 9.375 101.75 9.375L101.75 15 114.25 15 114.25 9.375C115.148026 9.375 115.996901 9.16455869 116.75 8.79030022zM114.83102-3.99680289e-15C115.248962-3.99680289e-15 115.639251.208876419 115.871083.556624755L118 3.75C118 5.82106781 116.321068 7.5 114.25 7.5 112.945643 7.5 111.796826 6.83405666 111.125 5.82362195 110.453174 6.83405666 109.304357 7.5 108 7.5 106.695643 7.5 105.546826 6.83405666 104.875 5.82362195 104.203174 6.83405666 103.054357 7.5 101.75 7.5 99.6789322 7.5 98 5.82106781 98 3.75L100.128917.556624755C100.360749.208876419 100.751038-3.99680289e-15 101.16898-3.99680289e-15L114.83102-3.99680289e-15z"/>
      <use fill="#FFF" opacity=".4" xlink:href="#platform-a"/>
    </g>
  </g>
</svg>
