<svg xmlns="http://www.w3.org/2000/svg" xmlns:xlink="http://www.w3.org/1999/xlink" width="300" height="116" viewBox="0 0 300 116">
  <defs>
    <path id="payouts-a" d="M233.25,76.2903002 L233.25,86.25 C233.25,86.9403559 232.690356,87.5 232,87.5 L217,87.5 C216.309644,87.5 215.75,86.9403559 215.75,86.25 L215.75,76.2903002 C216.503099,76.6645587 217.351974,76.875 218.25,76.875 L218.25,82.5 L230.75,82.5 L230.75,76.875 C231.648026,76.875 232.496901,76.6645587 233.25,76.2903002 Z M231.33102,67.5 C231.748962,67.5 232.139251,67.7088764 232.371083,68.0566248 L234.5,71.25 C234.5,73.3210678 232.821068,75 230.75,75 C229.445643,75 228.296826,74.3340567 227.625,73.323622 C226.953174,74.3340567 225.804357,75 224.5,75 C223.195643,75 222.046826,74.3340567 221.375,73.323622 C220.703174,74.3340567 219.554357,75 218.25,75 C216.178932,75 214.5,73.3210678 214.5,71.25 L216.628917,68.0566248 C216.860749,67.7088764 217.251038,67.5 217.66898,67.5 L231.33102,67.5 Z"/>
  </defs>
  <g fill="none" fill-rule="evenodd">
    <rect width="300" height="116" fill="#3A97D4"/>
    <path fill="#FFF" fill-rule="nonzero" d="M203.998326,37.3483248 L204.108713,37.3666683 C204.47931,37.4601745 204.691532,37.8413468 204.582723,38.2180404 L204.582723,38.2180404 L201.330665,49.4765834 C201.30008,49.5824705 201.24566,49.6807837 201.171715,49.7637374 C200.908657,50.058845 200.466143,50.0937121 200.183331,49.8416151 L200.183331,49.8416151 L196.909292,46.9244494 C188.55179,54.6331434 179.220377,58.5 168.944448,58.5 C168.530234,58.5 168.194448,58.1642136 168.194448,57.75 C168.194448,57.3357864 168.530234,57 168.944448,57 C178.787433,57 187.724444,53.3152404 195.784476,45.9210426 L192.623082,43.1024405 C192.543585,43.031577 192.482396,42.942373 192.44436,42.8418928 C192.309049,42.4844342 192.492624,42.0720759 192.854388,41.9208647 L192.854388,41.9208647 L203.666694,37.4014963 C203.808423,37.3422558 203.963523,37.3300351 204.108713,37.3666683 Z" opacity=".4"/>
    <path fill="#FFF" fill-rule="nonzero" d="M168.944448,57 C179.220377,57 188.55179,60.8668566 196.909292,68.5755506 L200.183219,65.6584849 C200.262716,65.5876214 200.358338,65.5370449 200.462512,65.5107606 C200.833109,65.4172544 201.221744,65.6468231 201.330553,66.0235166 L201.330553,66.0235166 L204.582611,77.2820596 C204.625239,77.429638 204.619626,77.585117 204.566615,77.7251596 C204.431304,78.0826183 204.028345,78.2498149 203.666582,78.0986037 L203.666582,78.0986037 L192.854275,73.5792353 C192.752585,73.5367304 192.661147,73.4714149 192.587203,73.3884612 C192.324145,73.0933535 192.340158,72.6497565 192.62297,72.3976594 L192.62297,72.3976594 L195.784476,69.5789574 C187.724444,62.1847596 178.787433,58.5 168.944448,58.5 C168.530234,58.5 168.194448,58.1642136 168.194448,57.75 C168.194448,57.3357864 168.530234,57 168.944448,57 Z"/>
    <circle cx="151.556" cy="57.75" r="9" fill="#FFF"/>
    <path fill="#FFF" fill-rule="nonzero" d="M120.047789,52.6293549 C120.224587,52.2904918 120.654557,52.1531403 121.008153,52.3225719 L121.008153,52.3225719 L131.57637,57.3865092 C131.7149,57.4528879 131.827227,57.5605347 131.896492,57.6932921 C132.07329,58.0321553 131.929967,58.4442095 131.57637,58.6136411 L131.57637,58.6136411 L121.008153,63.6775784 C120.908759,63.7252049 120.799158,63.75 120.688032,63.75 C120.292699,63.75 119.972219,63.4428729 119.972219,63.0640124 L119.972219,63.0640124 L119.972,58.75 L98.25,58.75 C97.8357864,58.75 97.5,58.4142136 97.5,58 C97.5,57.6203042 97.7821539,57.306509 98.1482294,57.2568466 L98.25,57.25 L119.972,57.25 L119.972219,52.9361379 C119.972219,52.8651404 119.983718,52.794793 120.006109,52.7275601 Z"/>
    <path fill="#FFF" d="M71.4305521,57.375 L71.4305521,65.5 L73.3055521,65.5 L73.3055521,57.375 L77.0555521,57.375 L77.0555521,65.5 L78.9305521,65.5 L78.9305521,57.375 L82.6805521,57.375 L82.6805521,65.5 L84.2501109,65.5 C84.7638641,65.5 85.1803434,65.9164793 85.1803434,66.4302326 L85.1803434,68 L65.1807609,68 L65.1807609,66.4302326 C65.1807609,65.9164793 65.5972402,65.5 66.1109934,65.5 L67.6805521,65.5 L67.6805521,57.375 L71.4305521,57.375 Z M75.1805521,48 C81.0318528,51.2148602 84.1567876,52.9373496 84.5553565,53.1674682 C85.1532098,53.5126462 85.3580494,54.2771342 85.0128787,54.875 C84.7772823,55.2830734 84.346344,55.5080479 83.9063764,55.5 L66.4547279,55.5 C66.0147603,55.5080479 65.583822,55.2830734 65.3482256,54.875 C65.0030548,54.2771342 65.2078945,53.5126462 65.8057478,53.1674682 C66.2043167,52.9373496 69.3292515,51.2148602 75.1805521,48 Z"/>
    <path fill="#FFF" d="M233.25,36.7903002 L233.25,46.75 C233.25,47.4403559 232.690356,48 232,48 L217,48 C216.309644,48 215.75,47.4403559 215.75,46.75 L215.75,36.7903002 C216.503099,37.1645587 217.351974,37.375 218.25,37.375 L218.25,43 L230.75,43 L230.75,37.375 C231.648026,37.375 232.496901,37.1645587 233.25,36.7903002 Z M231.33102,28 C231.748962,28 232.139251,28.2088764 232.371083,28.5566248 L234.5,31.75 C234.5,33.8210678 232.821068,35.5 230.75,35.5 C229.445643,35.5 228.296826,34.8340567 227.625,33.823622 C226.953174,34.8340567 225.804357,35.5 224.5,35.5 C223.195643,35.5 222.046826,34.8340567 221.375,33.823622 C220.703174,34.8340567 219.554357,35.5 218.25,35.5 C216.178932,35.5 214.5,33.8210678 214.5,31.75 L216.628917,28.5566248 C216.860749,28.2088764 217.251038,28 217.66898,28 L231.33102,28 Z" opacity=".4"/>
    <use fill="#FFF" xlink:href="#payouts-a"/>
  </g>
</svg>
